<?xml version="1.0" encoding="UTF-8"?>
<svg version="1.1" viewBox="0 0 41.804 41.804" xmlns="http://www.w3.org/2000/svg">
 <g transform="translate(-85.246 -124.29)">
  <g transform="translate(.024073 -3.8249)" fill="#a9a9a9">
   <path d="m98.028 132.69c0.07937-0.23813 0.26458-0.39688 0.58208-0.3175 0.58208 0.13229 5.2652 1.1377 5.2652 1.1377s9.7367-1.4817 10.081-1.561c0.29104-0.0529 0.50271 0.10584 0.55563 0.37042 0.0265 0.10583 1.6669 5.6356 3.0956 10.451h-22.807c1.4817-4.6302 3.1221-9.816 3.2279-10.081z" stroke-width=".26458"/>
   <path transform="scale(.26458)" d="m370 578.72c-14 0-25.3 11.902-24.5 26.102 0.8 12.2 10.7 22.098 22.9 22.898 14.3 0.90002 26.1-10.4 26.1-24.5 0-0.70001 5.5e-4 -1.3-0.0996-2 2.2-0.69997 4.3992-1.0996 6.6992-1.0996 2.2 0 4.4004 0.29999 6.4004 1-0.10016 0.69997-0.0996 1.3996-0.0996 2.0996 0 14.1 11.8 25.4 26.1 24.5 12.2-0.79997 22.1-10.698 22.9-22.898 0.90002-14.2-10.4-26.102-24.5-26.102-10.3 0-18.999 6.2016-22.699 15.102-2.6-0.80001-5.3016-1.2012-8.1016-1.2012-2.9 0-5.6985 0.50077-8.3984 1.3008-3.7-8.9-12.501-15.201-22.701-15.201zm0.0996 7.2012a17.4 17.4 0 0 1 17.4 17.4 17.4 17.4 0 0 1-17.4 17.398 17.4 17.4 0 0 1-17.4-17.398 17.4 17.4 0 0 1 17.4-17.4zm61.801 0a17.4 17.4 0 0 1 17.4 17.4 17.4 17.4 0 0 1-17.4 17.398 17.4 17.4 0 0 1-17.4-17.398 17.4 17.4 0 0 1 17.4-17.4z"/>
   <path d="m126.95 150.95h-41.645c-0.05292 0-0.07937-0.0794-0.02646-0.10584 1.3758-0.71437 9.3662-4.6567 20.902-4.6567 11.562 0 19.447 3.9158 20.796 4.6567 0.0529 0.0265 0.0265 0.10584-0.0265 0.10584z" stroke-width=".26458"/>
  </g>
 </g>
</svg>
