<svg version="1" xmlns="http://www.w3.org/2000/svg" width="400" height="400" viewBox="0 0 300.000000 300.000000"><path d="M42.3 21.6c.3.5-1.7 1-4.6 1-9.3.1-15.3 3.4-20.2 10.9-2 2.9-2 5.7-2.3 114.7L15 259.9l2.1 4.6c3.8 8.1 11.7 12.3 22.7 12.1 3.5-.1 6.2.3 6.2.9 0 .7.3.7.8 0 1-1.4 67.2-1.4 67.2 0 0 .7.3.7.8 0 .4-.6 17.5-1 47.7-1 30.2 0 47.3.4 47.7 1 .5.7.8.7.8 0 0-.6 10.2-1 28.8-.9 23.6.1 29.4-.2 32.7-1.4 2.2-.9 4.3-2 4.6-2.5.4-.5 1.3-.6 2-.2.8.5 1.1.5.7 0-.4-.4-.3-1.4.3-2.2.9-1 1.5-1.1 2.8-.1 1.3 1 1.4 1 .4-.2-.7-.8-1.3-1.8-1.3-2.3 0-.5.6-.7 1.3-.4.8.3 1.3-.8 1.4-3.2.1-1.9.6-3.7 1.1-3.9.5-.1.7-3.1.5-6.5-.2-4-.1-5.7.5-4.8.7.9 1.2 1 1.6.2.4-.6 1.3-.8 1.9-.5.7.4.8.3.4-.2-.5-.5-1.6-.9-2.5-.9-2.1 0-2.9-4.4-1-5.6 1-.7 1-.9.1-.9-.7 0-1.3-1.2-1.3-2.6 0-1.4.4-2.3 1-1.9.6.4.8 1 .5 1.5-.3.4.2 1.3.9 1.9 1 .9 1.6.9 2.1.1.4-.6.1-.9-.7-.8-.8.2-1.3-.6-1.2-1.9.1-1.2-.4-2.1-1-2-1.6.3-2-4.4-.4-5.4.8-.6.9-.9.1-.9-1.6 0-1.6-18.2 0-19.2.9-.6.9-.8 0-.8-.7 0-1.3-1.2-1.3-2.6 0-1.7.4-2.3 1.3-1.8 1 .6 1 .4 0-.7-1.9-1.9-1.6-5.7.5-6.2 1.3-.4 1.4-.5.1-.6-1.2-.1-1.6-1.5-1.7-6.9-.1-4 .2-6.2.7-5.3.6.9 1.1 1 1.5.2.4-.6 1.3-.8 1.9-.5.7.4.8.3.4-.2-.5-.5-1.6-.9-2.5-.9-2.1 0-2.9-4.4-1-5.6 1-.7 1-.9.1-.9-.7 0-1.3-1.2-1.3-2.6 0-1.4.4-2.3 1-1.9.6.4.8 1 .5 1.5-.3.4.2 1.3.9 1.9 1 .9 1.6.9 2.1.1.4-.6.1-.9-.7-.8-.8.2-1.3-.6-1.2-1.9.1-1.2-.4-2.1-1-2-1.6.3-2-4.4-.4-5.4.8-.6.9-.9.1-.9-1.6 0-1.6-18.2 0-19.2.9-.6.9-.8 0-.8-.7 0-1.3-1.2-1.3-2.6 0-1.7.4-2.3 1.3-1.8.9.6.9.4 0-.7-1.9-1.9-1.6-5.7.5-6.2 1.3-.4 1.4-.5.1-.6-1.2-.1-1.6-1.5-1.7-6.9-.1-4 .2-6.2.7-5.3.6.9 1.1 1 1.5.2.4-.6 1.3-.8 1.9-.5.7.4.8.3.4-.2-.5-.5-1.6-.9-2.5-.9-2.1 0-2.9-4.4-1-5.6 1-.7 1-.9.1-.9-.7 0-1.3-1.2-1.3-2.6 0-1.4.4-2.3 1-1.9.6.4.8 1 .5 1.5-.3.4.2 1.3.9 1.9 1 .9 1.6.9 2.1.1.4-.6.1-.9-.7-.8-.8.2-1.3-.6-1.2-1.9.1-1.2-.4-2.1-1-2-1.6.3-2-4.4-.4-5.4.8-.6.9-.9.1-.9-1.6 0-1.6-18.2 0-19.2.9-.6.9-.8 0-.8-.7 0-1.3-1.2-1.3-2.6 0-1.7.4-2.3 1.3-1.8 1 .6 1 .4 0-.7-1.9-1.9-1.6-5.7.5-6.2 1.3-.4 1.4-.5.1-.6-1.3-.1-1.6-1.7-1.7-9.5-.1-8.1.2-9.5 1.6-9.9 1.5-.4 1.5-.5 0-.6-1.2-.1-1.8-.9-1.8-2.7 0-1.7.4-2.3 1.3-1.8.8.6.8.3-.2-.9-.7-.9-1.1-2.4-.7-3.2.3-.8.1-1.5-.5-1.5s-.8-.4-.4-.9c.3-.5 0-1.3-.6-1.7-.8-.4-.7-.9.2-1.5 1.1-.7 1-.9-.3-.9-1.6 0-2-.6-1.7-2.6 0-.4-.5-1-1.3-1.5-.7-.5-1.3-1.4-1.3-2.1 0-.7-.7-1.3-1.5-1.4-.8 0-3.3-.9-5.5-1.9-3.1-1.5-6.5-1.9-15.5-2-6.3 0-12.2-.5-12.9-1-.9-.5-1.2-.4-.8.2.5.9-6.5 1.1-8.3.3-.3-.1-.9-.1-1.5 0-4.2.9-5.5.9-6 0-.4-.6-1.1-.7-1.8-.3-1.5.9-37.8 1-38.4 0-.2-.4-.9-.5-1.4-.1-1.9 1.1-5.8 1.4-6.4.4-.4-.7-1.4-.6-2.8.2-2.6 1.4-2.7 1.4-3.8-.4-.5-.7-.9-.8-.9-.3 0 1.3-21.9 1.3-23.9 0-.9-.5-1.2-.4-.8.2.5.9-6.5 1.1-8.3.3-.3-.1-.9-.1-1.5 0-4.2.9-5.5.9-6 0-.4-.6-1.1-.7-1.8-.3-1.5.9-37.8 1-38.4 0-.2-.4-.9-.5-1.4-.1-1.9 1.1-5.8 1.4-6.4.4-.4-.6-1.3-.7-2.3-.1-2.6 1.4-3.4 1.4-4.3-.1-.5-.7-.9-.8-.9-.3 0 1.3-21.9 1.3-23.9 0-.9-.5-1.2-.4-.8.2.8 1.3-7.3 1.1-9.3-.2-.7-.5-1.1-.4-.7.1z"/><path d="M284.5 32c-.3.6.1.7.9.4 1.8-.7 2.1-1.4.7-1.4-.6 0-1.3.4-1.6 1zM287.4 51.8c.4.3 1.4.7 2.2.8.9.1 1.3 0 1-.4-.4-.3-1.4-.7-2.2-.8-.9-.1-1.3 0-1 .4zM287 57.1c0 .5.5.7 1 .4.6-.3 1-.8 1-1.1 0-.2-.4-.4-1-.4-.5 0-1 .5-1 1.1zM289 62c0 .5.5 1 1.1 1 .5 0 .7-.5.4-1-.3-.6-.8-1-1.1-1-.2 0-.4.4-.4 1zM289 78c0 .5.5 1 1.1 1 .5 0 .7-.5.4-1-.3-.6-.8-1-1.1-1-.2 0-.4.4-.4 1zM287.4 88.2c-.4.5-.3 1.2 0 1.5.3.4.6.1.6-.6s.4-1 .9-.6c.5.3 1.2.2 1.5-.3.3-.5-.2-.9-1-.9s-1.7.4-2 .9zM287.5 96c.3.5.8 1 1.1 1 .2 0 .4-.5.4-1 0-.6-.5-1-1.1-1-.5 0-.7.4-.4 1zM289 102c0 .5.5 1 1.1 1 .5 0 .7-.5.4-1-.3-.6-.8-1-1.1-1-.2 0-.4.4-.4 1zM289 126c0 .5.5 1 1.1 1 .5 0 .7-.5.4-1-.3-.6-.8-1-1.1-1-.2 0-.4.4-.4 1zM289 142c0 .5.5 1 1.1 1 .5 0 .7-.5.4-1-.3-.6-.8-1-1.1-1-.2 0-.4.4-.4 1zM287.4 152.2c-.4.5-.3 1.2 0 1.5.3.4.6.1.6-.6s.4-1 .9-.6c.5.3 1.2.2 1.5-.3.3-.5-.2-.9-1-.9s-1.7.4-2 .9zM287.5 160c.3.5.8 1 1.1 1 .2 0 .4-.5.4-1 0-.6-.5-1-1.1-1-.5 0-.7.4-.4 1zM289 166c0 .5.5 1 1.1 1 .5 0 .7-.5.4-1-.3-.6-.8-1-1.1-1-.2 0-.4.4-.4 1zM289 190c0 .5.5 1 1.1 1 .5 0 .7-.5.4-1-.3-.6-.8-1-1.1-1-.2 0-.4.4-.4 1zM289 206c0 .5.5 1 1.1 1 .5 0 .7-.5.4-1-.3-.6-.8-1-1.1-1-.2 0-.4.4-.4 1zM287.4 216.2c-.4.5-.3 1.2 0 1.5.3.4.6.1.6-.6s.4-1 .9-.6c.5.3 1.2.2 1.5-.3.3-.5-.2-.9-1-.9s-1.7.4-2 .9zM287.5 224c.3.5.8 1 1.1 1 .2 0 .4-.5.4-1 0-.6-.5-1-1.1-1-.5 0-.7.4-.4 1zM289 230c0 .5.5 1 1.1 1 .5 0 .7-.5.4-1-.3-.6-.8-1-1.1-1-.2 0-.4.4-.4 1zM287.5 252.1c-.3.4.2.6 1 .5 2.1-.3 2.8-1.3 1-1.3-.9 0-1.8.4-2 .8zM289.5 262c.3.5.8 1 1.1 1 .2 0 .4-.5.4-1 0-.6-.5-1-1.1-1-.5 0-.7.4-.4 1zM287 264c0 .5.5 1 1.1 1 .5 0 .7-.5.4-1-.3-.6-.8-1-1.1-1-.2 0-.4.4-.4 1z"/></svg>